<svg width="300" height="350" viewBox="0 0 300 350" fill="none" xmlns="http://www.w3.org/2000/svg">
<rect width="300" height="350" fill="#005BAA"/>
<path d="M75.7698 82.88V78.37H74.2848C71.6448 78.37 69.6648 77.8017 68.3448 76.665C67.0248 75.5283 66.3648 73.64 66.3648 71V60.165C66.3648 57.9283 66.9514 56.2417 68.1248 55.105C69.3348 53.9317 71.2048 53.345 73.7348 53.345H75.7698V49.495H79.9498V53.345H81.8198C84.3864 53.345 86.2748 53.895 87.4848 54.995C88.7314 56.095 89.3548 57.855 89.3548 60.275V70.89C89.3548 73.75 88.6581 75.7117 87.2648 76.775C85.9081 77.8383 83.9098 78.37 81.2698 78.37H79.9498V82.88H75.7698ZM74.8348 76.005H75.7698C75.7698 72.6317 75.7698 69.2767 75.7698 65.94C75.7698 62.5667 75.7698 59.2117 75.7698 55.875H74.8898C73.4964 55.875 72.4331 56.26 71.6998 57.03C70.9664 57.7633 70.5998 58.9733 70.5998 60.66V71.22C70.5998 72.9067 70.9481 74.135 71.6448 74.905C72.3781 75.6383 73.4414 76.005 74.8348 76.005ZM79.9498 76.005H80.6648C82.0948 76.005 83.1764 75.675 83.9098 75.015C84.6798 74.3183 85.0648 73.0533 85.0648 71.22V60.715C85.0648 58.8817 84.6798 57.6167 83.9098 56.92C83.1764 56.2233 82.0948 55.875 80.6648 55.875H79.9498C79.9498 59.2117 79.9498 62.5667 79.9498 65.94C79.9498 69.2767 79.9498 72.6317 79.9498 76.005ZM93.4939 82V54.83H97.2339V74.41L105.539 54.83H109.279V82H105.594V61.485C104.164 64.9317 102.734 68.36 101.304 71.77C99.9106 75.1433 98.4623 78.5533 96.9589 82H93.4939ZM112.369 82V79.69C113.066 79.69 113.671 79.3417 114.184 78.645C114.734 77.9117 115.064 76.885 115.174 75.565L116.879 54.83H131.509V82H127.219V57.855H121.114L119.354 76.72C119.318 77.1967 119.244 77.7467 119.134 78.37C119.061 78.9567 118.878 79.525 118.584 80.075C118.291 80.625 117.851 81.0833 117.264 81.45C116.678 81.8167 115.871 82 114.844 82H112.369ZM135.872 82V54.83H139.612V74.41L147.917 54.83H151.657V82H147.972V61.485C146.542 64.9317 145.112 68.36 143.682 71.77C142.289 75.1433 140.84 78.5533 139.337 82H135.872ZM161.457 82.385C160.577 82.385 159.716 82.2567 158.872 82C158.029 81.78 157.314 81.2483 156.727 80.405C156.141 79.5617 155.847 78.2417 155.847 76.445V73.53C155.847 71.7333 156.379 70.285 157.442 69.185C158.542 68.085 160.101 67.095 162.117 66.215C163.327 65.665 164.317 65.17 165.087 64.73C165.857 64.2533 166.426 63.74 166.792 63.19C167.159 62.6033 167.342 61.8333 167.342 60.88V59.615C167.342 58.8083 167.177 58.2033 166.847 57.8C166.554 57.36 166.132 57.0483 165.582 56.865C165.069 56.6817 164.501 56.59 163.877 56.59C162.411 56.59 161.439 57.0117 160.962 57.855C160.522 58.6617 160.302 59.9083 160.302 61.595V63.905H156.507V61.21C156.507 59.8533 156.691 58.6617 157.057 57.635C157.424 56.5717 158.139 55.7467 159.202 55.16C160.266 54.5367 161.824 54.225 163.877 54.225C166.041 54.225 167.672 54.4633 168.772 54.94C169.872 55.38 170.606 56.04 170.972 56.92C171.376 57.8 171.577 58.9 171.577 60.22V82H167.397V78.7C166.994 79.91 166.224 80.8267 165.087 81.45C163.987 82.0733 162.777 82.385 161.457 82.385ZM163.107 79.58C164.611 79.58 165.674 79.0667 166.297 78.04C166.957 76.9767 167.287 75.5467 167.287 73.75V65.5C166.957 66.05 166.407 66.545 165.637 66.985C164.904 67.3883 164.152 67.81 163.382 68.25C162.282 68.91 161.421 69.5883 160.797 70.285C160.211 70.9817 159.917 71.9533 159.917 73.2V75.565C159.917 76.7383 160.082 77.6183 160.412 78.205C160.742 78.7917 161.146 79.1767 161.622 79.36C162.136 79.5067 162.631 79.58 163.107 79.58ZM174.674 82V79.69C175.371 79.69 175.976 79.3417 176.489 78.645C177.039 77.9117 177.369 76.885 177.479 75.565L179.184 54.83H193.814V82H189.524V57.855H183.419L181.659 76.72C181.622 77.1967 181.549 77.7467 181.439 78.37C181.366 78.9567 181.182 79.525 180.889 80.075C180.596 80.625 180.156 81.0833 179.569 81.45C178.982 81.8167 178.176 82 177.149 82H174.674ZM198.067 82V54.885H202.247V63.355H207.527C209.103 63.355 210.368 63.5933 211.322 64.07C212.275 64.5467 212.972 65.28 213.412 66.27C213.852 67.26 214.072 68.5433 214.072 70.12V73.035C214.072 74.6483 213.943 76.0233 213.687 77.16C213.43 78.2967 213.027 79.2317 212.477 79.965C211.963 80.6617 211.267 81.175 210.387 81.505C209.507 81.835 208.407 82 207.087 82H198.067ZM202.247 79.69H206.152C207.252 79.69 208.058 79.4883 208.572 79.085C209.085 78.6817 209.433 78.1133 209.617 77.38C209.8 76.6467 209.892 75.8217 209.892 74.905V70.835C209.892 69.955 209.818 69.1483 209.672 68.415C209.525 67.6817 209.195 67.095 208.682 66.655C208.168 66.215 207.325 65.995 206.152 65.995H202.247V79.69ZM218.912 82V54.775H223.037V82H218.912ZM110.091 148V120.775H120.211C122.191 120.775 123.749 121.233 124.886 122.15C126.022 123.03 126.591 124.405 126.591 126.275V128.255C126.591 129.978 126.114 131.317 125.161 132.27C124.207 133.223 122.924 133.737 121.311 133.81V133.755C122.961 133.755 124.336 134.232 125.436 135.185C126.536 136.102 127.086 137.605 127.086 139.695V141.235C127.086 143.068 126.774 144.48 126.151 145.47C125.564 146.46 124.721 147.138 123.621 147.505C122.521 147.835 121.219 148 119.716 148H110.091ZM114.491 145.745H118.671C119.477 145.745 120.156 145.635 120.706 145.415C121.292 145.195 121.732 144.773 122.026 144.15C122.356 143.527 122.521 142.61 122.521 141.4V139.145C122.521 138.155 122.337 137.403 121.971 136.89C121.604 136.34 121.109 135.955 120.486 135.735C119.899 135.515 119.202 135.405 118.396 135.405H114.491V145.745ZM114.491 132.545H118.396C119.716 132.545 120.706 132.233 121.366 131.61C122.026 130.987 122.356 130.015 122.356 128.695V126.33C122.356 125.34 122.044 124.588 121.421 124.075C120.797 123.525 120.009 123.25 119.056 123.25H114.491V132.545ZM149.985 148.44C147.969 148.44 146.3 148.202 144.98 147.725C143.697 147.248 142.744 146.387 142.12 145.14C141.497 143.857 141.185 142.042 141.185 139.695V137.605H145.475V139.31C145.475 141.51 145.824 143.05 146.52 143.93C147.217 144.81 148.39 145.25 150.04 145.25C151.58 145.25 152.662 144.755 153.285 143.765C153.945 142.738 154.275 141.198 154.275 139.145V134.305C154.275 133.315 154.165 132.398 153.945 131.555C153.725 130.712 153.285 130.052 152.625 129.575C152.002 129.098 151.104 128.86 149.93 128.86C148.757 128.86 147.785 129.172 147.015 129.795C146.245 130.418 145.75 131.262 145.53 132.325H141.35V115.495H157.795V118.685H145.585V128.64C146.062 127.833 146.759 127.192 147.675 126.715C148.629 126.202 149.875 125.945 151.415 125.945C153.835 125.945 155.65 126.495 156.86 127.595C158.07 128.658 158.675 130.583 158.675 133.37V139.53C158.675 141.95 158.309 143.802 157.575 145.085C156.879 146.368 155.87 147.248 154.55 147.725C153.267 148.202 151.745 148.44 149.985 148.44ZM171.523 148.44C169.507 148.44 167.838 148.202 166.518 147.725C165.235 147.248 164.282 146.387 163.658 145.14C163.035 143.857 162.723 142.042 162.723 139.695V137.605H167.013V139.31C167.013 141.51 167.362 143.05 168.058 143.93C168.755 144.81 169.928 145.25 171.578 145.25C173.118 145.25 174.2 144.755 174.823 143.765C175.483 142.738 175.813 141.198 175.813 139.145V134.305C175.813 133.315 175.703 132.398 175.483 131.555C175.263 130.712 174.823 130.052 174.163 129.575C173.54 129.098 172.642 128.86 171.468 128.86C170.295 128.86 169.323 129.172 168.553 129.795C167.783 130.418 167.288 131.262 167.068 132.325H162.888V115.495H179.333V118.685H167.123V128.64C167.6 127.833 168.297 127.192 169.213 126.715C170.167 126.202 171.413 125.945 172.953 125.945C175.373 125.945 177.188 126.495 178.398 127.595C179.608 128.658 180.213 130.583 180.213 133.37V139.53C180.213 141.95 179.847 143.802 179.113 145.085C178.417 146.368 177.408 147.248 176.088 147.725C174.805 148.202 173.283 148.44 171.523 148.44ZM87.7151 214.495C85.8817 214.495 84.3784 214.293 83.2051 213.89C82.0317 213.45 81.1701 212.662 80.6201 211.525C80.0701 210.352 79.7951 208.628 79.7951 206.355V193.32C79.7951 190.607 80.4001 188.755 81.6101 187.765C82.8567 186.775 84.8367 186.28 87.5501 186.28C90.2267 186.28 92.1701 186.775 93.3801 187.765C94.6267 188.718 95.2501 190.497 95.2501 193.1V196.73H91.0701V192.88C91.0701 191.45 90.8317 190.423 90.3551 189.8C89.9151 189.14 88.9801 188.81 87.5501 188.81C86.1567 188.81 85.2034 189.14 84.6901 189.8C84.2134 190.423 83.9751 191.45 83.9751 192.88V207.565C83.9751 209.142 84.2134 210.26 84.6901 210.92C85.2034 211.543 86.1934 211.855 87.6601 211.855C89.0167 211.855 89.9151 211.543 90.3551 210.92C90.8317 210.297 91.0701 209.178 91.0701 207.565V203.605H95.2501V206.355C95.2501 208.555 94.9751 210.242 94.4251 211.415C93.8751 212.588 93.0317 213.395 91.8951 213.835C90.7951 214.275 89.4017 214.495 87.7151 214.495ZM103.421 214V189.855H97.811V186.775H113.376V189.855H107.711V214H103.421ZM116.816 220.38V186.775H120.776L120.886 189.085C121.216 188.388 121.729 187.765 122.426 187.215C123.159 186.665 124.351 186.39 126.001 186.39C127.614 186.39 128.879 186.665 129.796 187.215C130.713 187.728 131.373 188.498 131.776 189.525C132.179 190.515 132.381 191.725 132.381 193.155V206.52C132.381 208.17 132.198 209.582 131.831 210.755C131.464 211.928 130.823 212.827 129.906 213.45C128.989 214.073 127.688 214.385 126.001 214.385C124.644 214.385 123.563 214.165 122.756 213.725C121.949 213.248 121.344 212.698 120.941 212.075V220.38H116.816ZM124.571 211.91C125.488 211.91 126.184 211.782 126.661 211.525C127.138 211.268 127.486 210.92 127.706 210.48C127.963 210.04 128.109 209.545 128.146 208.995C128.183 208.445 128.201 207.858 128.201 207.235V193.705C128.201 193.082 128.183 192.495 128.146 191.945C128.109 191.395 127.963 190.9 127.706 190.46C127.486 189.983 127.138 189.617 126.661 189.36C126.184 189.103 125.488 188.975 124.571 188.975C123.691 188.975 122.994 189.14 122.481 189.47C122.004 189.8 121.656 190.222 121.436 190.735C121.216 191.212 121.088 191.762 121.051 192.385C121.014 192.972 120.996 193.522 120.996 194.035V207.51C120.996 208.353 121.069 209.105 121.216 209.765C121.363 210.425 121.693 210.957 122.206 211.36C122.719 211.727 123.508 211.91 124.571 211.91ZM142.014 214.385C141.134 214.385 140.272 214.257 139.429 214C138.585 213.78 137.87 213.248 137.284 212.405C136.697 211.562 136.404 210.242 136.404 208.445V205.53C136.404 203.733 136.935 202.285 137.999 201.185C139.099 200.085 140.657 199.095 142.674 198.215C143.884 197.665 144.874 197.17 145.644 196.73C146.414 196.253 146.982 195.74 147.349 195.19C147.715 194.603 147.899 193.833 147.899 192.88V191.615C147.899 190.808 147.734 190.203 147.404 189.8C147.11 189.36 146.689 189.048 146.139 188.865C145.625 188.682 145.057 188.59 144.434 188.59C142.967 188.59 141.995 189.012 141.519 189.855C141.079 190.662 140.859 191.908 140.859 193.595V195.905H137.064V193.21C137.064 191.853 137.247 190.662 137.614 189.635C137.98 188.572 138.695 187.747 139.759 187.16C140.822 186.537 142.38 186.225 144.434 186.225C146.597 186.225 148.229 186.463 149.329 186.94C150.429 187.38 151.162 188.04 151.529 188.92C151.932 189.8 152.134 190.9 152.134 192.22V214H147.954V210.7C147.55 211.91 146.78 212.827 145.644 213.45C144.544 214.073 143.334 214.385 142.014 214.385ZM143.664 211.58C145.167 211.58 146.23 211.067 146.854 210.04C147.514 208.977 147.844 207.547 147.844 205.75V197.5C147.514 198.05 146.964 198.545 146.194 198.985C145.46 199.388 144.709 199.81 143.939 200.25C142.839 200.91 141.977 201.588 141.354 202.285C140.767 202.982 140.474 203.953 140.474 205.2V207.565C140.474 208.738 140.639 209.618 140.969 210.205C141.299 210.792 141.702 211.177 142.179 211.36C142.692 211.507 143.187 211.58 143.664 211.58ZM156.551 214V186.775H160.731V198.16H168.376V186.775H172.501V214H168.376V201.35H160.731V214H156.551ZM182.243 214.385C181.363 214.385 180.502 214.257 179.658 214C178.815 213.78 178.1 213.248 177.513 212.405C176.927 211.562 176.633 210.242 176.633 208.445V205.53C176.633 203.733 177.165 202.285 178.228 201.185C179.328 200.085 180.887 199.095 182.903 198.215C184.113 197.665 185.103 197.17 185.873 196.73C186.643 196.253 187.212 195.74 187.578 195.19C187.945 194.603 188.128 193.833 188.128 192.88V191.615C188.128 190.808 187.963 190.203 187.633 189.8C187.34 189.36 186.918 189.048 186.368 188.865C185.855 188.682 185.287 188.59 184.663 188.59C183.197 188.59 182.225 189.012 181.748 189.855C181.308 190.662 181.088 191.908 181.088 193.595V195.905H177.293V193.21C177.293 191.853 177.477 190.662 177.843 189.635C178.21 188.572 178.925 187.747 179.988 187.16C181.052 186.537 182.61 186.225 184.663 186.225C186.827 186.225 188.458 186.463 189.558 186.94C190.658 187.38 191.392 188.04 191.758 188.92C192.162 189.8 192.363 190.9 192.363 192.22V214H188.183V210.7C187.78 211.91 187.01 212.827 185.873 213.45C184.773 214.073 183.563 214.385 182.243 214.385ZM183.893 211.58C185.397 211.58 186.46 211.067 187.083 210.04C187.743 208.977 188.073 207.547 188.073 205.75V197.5C187.743 198.05 187.193 198.545 186.423 198.985C185.69 199.388 184.938 199.81 184.168 200.25C183.068 200.91 182.207 201.588 181.583 202.285C180.997 202.982 180.703 203.953 180.703 205.2V207.565C180.703 208.738 180.868 209.618 181.198 210.205C181.528 210.792 181.932 211.177 182.408 211.36C182.922 211.507 183.417 211.58 183.893 211.58ZM194.91 214L200.85 199.7L195.845 186.775H199.86L203.6 196.4L207.67 186.775H211.575L206.185 199.7L211.905 214H207.89L203.545 203.33L199.035 214H194.91ZM108.748 280V252.775H113.753L119.803 274.61L125.908 252.775H130.858V280H127.338V259.375L121.288 280H118.318L112.213 259.375V280H108.748ZM135.227 280V252.83H138.967V272.41L147.272 252.83H151.012V280H147.327V259.485C145.897 262.932 144.467 266.36 143.037 269.77C141.644 273.143 140.196 276.553 138.692 280H135.227ZM155.918 286.38V252.775H159.878L159.988 255.085C160.318 254.388 160.831 253.765 161.528 253.215C162.261 252.665 163.453 252.39 165.103 252.39C166.716 252.39 167.981 252.665 168.898 253.215C169.814 253.728 170.474 254.498 170.878 255.525C171.281 256.515 171.483 257.725 171.483 259.155V272.52C171.483 274.17 171.299 275.582 170.933 276.755C170.566 277.928 169.924 278.827 169.008 279.45C168.091 280.073 166.789 280.385 165.103 280.385C163.746 280.385 162.664 280.165 161.858 279.725C161.051 279.248 160.446 278.698 160.043 278.075V286.38H155.918ZM163.673 277.91C164.589 277.91 165.286 277.782 165.763 277.525C166.239 277.268 166.588 276.92 166.808 276.48C167.064 276.04 167.211 275.545 167.248 274.995C167.284 274.445 167.303 273.858 167.303 273.235V259.705C167.303 259.082 167.284 258.495 167.248 257.945C167.211 257.395 167.064 256.9 166.808 256.46C166.588 255.983 166.239 255.617 165.763 255.36C165.286 255.103 164.589 254.975 163.673 254.975C162.793 254.975 162.096 255.14 161.583 255.47C161.106 255.8 160.758 256.222 160.538 256.735C160.318 257.212 160.189 257.762 160.153 258.385C160.116 258.972 160.098 259.522 160.098 260.035V273.51C160.098 274.353 160.171 275.105 160.318 275.765C160.464 276.425 160.794 276.957 161.308 277.36C161.821 277.727 162.609 277.91 163.673 277.91ZM181.115 280.385C180.235 280.385 179.374 280.257 178.53 280C177.687 279.78 176.972 279.248 176.385 278.405C175.799 277.562 175.505 276.242 175.505 274.445V271.53C175.505 269.733 176.037 268.285 177.1 267.185C178.2 266.085 179.759 265.095 181.775 264.215C182.985 263.665 183.975 263.17 184.745 262.73C185.515 262.253 186.084 261.74 186.45 261.19C186.817 260.603 187 259.833 187 258.88V257.615C187 256.808 186.835 256.203 186.505 255.8C186.212 255.36 185.79 255.048 185.24 254.865C184.727 254.682 184.159 254.59 183.535 254.59C182.069 254.59 181.097 255.012 180.62 255.855C180.18 256.662 179.96 257.908 179.96 259.595V261.905H176.165V259.21C176.165 257.853 176.349 256.662 176.715 255.635C177.082 254.572 177.797 253.747 178.86 253.16C179.924 252.537 181.482 252.225 183.535 252.225C185.699 252.225 187.33 252.463 188.43 252.94C189.53 253.38 190.264 254.04 190.63 254.92C191.034 255.8 191.235 256.9 191.235 258.22V280H187.055V276.7C186.652 277.91 185.882 278.827 184.745 279.45C183.645 280.073 182.435 280.385 181.115 280.385ZM182.765 277.58C184.269 277.58 185.332 277.067 185.955 276.04C186.615 274.977 186.945 273.547 186.945 271.75V263.5C186.615 264.05 186.065 264.545 185.295 264.985C184.562 265.388 183.81 265.81 183.04 266.25C181.94 266.91 181.079 267.588 180.455 268.285C179.869 268.982 179.575 269.953 179.575 271.2V273.565C179.575 274.738 179.74 275.618 180.07 276.205C180.4 276.792 180.804 277.177 181.28 277.36C181.794 277.507 182.289 277.58 182.765 277.58Z" fill="white"/>
</svg>
