<svg width="300" height="350" viewBox="0 0 300 350" fill="none" xmlns="http://www.w3.org/2000/svg">
<rect width="300" height="350" fill="#005BAA"/>
<path d="M100.203 80.66C98.5531 80.66 97.0864 80.4583 95.8031 80.055C94.5198 79.6883 93.5114 78.9 92.7781 77.69C92.0448 76.48 91.6781 74.665 91.6781 72.245V54.315C91.6781 52.2983 92.0448 50.7767 92.7781 49.75C93.5114 48.6867 94.5198 47.9717 95.8031 47.605C97.1231 47.2383 98.6081 47.055 100.258 47.055C101.945 47.055 103.393 47.2567 104.603 47.66C105.85 48.0267 106.821 48.7233 107.518 49.75C108.251 50.7767 108.618 52.2983 108.618 54.315V60.255H104.383V54.205C104.383 52.885 104.2 51.9133 103.833 51.29C103.466 50.63 102.971 50.2083 102.348 50.025C101.725 49.805 101.01 49.695 100.203 49.695C99.3964 49.695 98.6814 49.805 98.0581 50.025C97.4348 50.2083 96.9398 50.63 96.5731 51.29C96.2431 51.9133 96.0781 52.885 96.0781 54.205V73.565C96.0781 74.885 96.2431 75.875 96.5731 76.535C96.9398 77.1583 97.4348 77.58 98.0581 77.8C98.6814 77.9833 99.3964 78.075 100.203 78.075C101.046 78.075 101.761 77.9833 102.348 77.8C102.971 77.58 103.466 77.1583 103.833 76.535C104.2 75.875 104.383 74.885 104.383 73.565V68.285H108.618V72.245C108.618 74.7017 108.251 76.535 107.518 77.745C106.821 78.9183 105.85 79.6883 104.603 80.055C103.356 80.4583 101.89 80.66 100.203 80.66ZM113.206 80V52.775H123.326C125.306 52.775 126.864 53.2333 128.001 54.15C129.138 55.03 129.706 56.405 129.706 58.275V60.255C129.706 61.9783 129.229 63.3167 128.276 64.27C127.323 65.2233 126.039 65.7367 124.426 65.81V65.755C126.076 65.755 127.451 66.2317 128.551 67.185C129.651 68.1017 130.201 69.605 130.201 71.695V73.235C130.201 75.0683 129.889 76.48 129.266 77.47C128.679 78.46 127.836 79.1383 126.736 79.505C125.636 79.835 124.334 80 122.831 80H113.206ZM117.606 77.745H121.786C122.593 77.745 123.271 77.635 123.821 77.415C124.408 77.195 124.848 76.7733 125.141 76.15C125.471 75.5267 125.636 74.61 125.636 73.4V71.145C125.636 70.155 125.453 69.4033 125.086 68.89C124.719 68.34 124.224 67.955 123.601 67.735C123.014 67.515 122.318 67.405 121.511 67.405H117.606V77.745ZM117.606 64.545H121.511C122.831 64.545 123.821 64.2333 124.481 63.61C125.141 62.9867 125.471 62.015 125.471 60.695V58.33C125.471 57.34 125.159 56.5883 124.536 56.075C123.913 55.525 123.124 55.25 122.171 55.25H117.606V64.545ZM134.473 80V52.885H138.653V61.355H143.933C145.509 61.355 146.774 61.5933 147.728 62.07C148.681 62.5467 149.378 63.28 149.818 64.27C150.258 65.26 150.478 66.5433 150.478 68.12V71.035C150.478 72.6483 150.349 74.0233 150.093 75.16C149.836 76.2967 149.433 77.2317 148.883 77.965C148.369 78.6617 147.673 79.175 146.793 79.505C145.913 79.835 144.813 80 143.493 80H134.473ZM138.653 77.69H142.558C143.658 77.69 144.464 77.4883 144.978 77.085C145.491 76.6817 145.839 76.1133 146.023 75.38C146.206 74.6467 146.298 73.8217 146.298 72.905V68.835C146.298 67.955 146.224 67.1483 146.078 66.415C145.931 65.6817 145.601 65.095 145.088 64.655C144.574 64.215 143.731 63.995 142.558 63.995H138.653V77.69ZM155.318 80V52.775H159.443V80H155.318ZM164.339 80V52.775H168.519V76.975H174.789V52.775H178.969V76.975H185.239V52.775H189.419V80H164.339ZM201.691 80.495C199.821 80.495 198.299 80.2933 197.126 79.89C195.953 79.45 195.091 78.6433 194.541 77.47C193.991 76.2967 193.716 74.5733 193.716 72.3V59.1C193.716 56.4967 194.321 54.7183 195.531 53.765C196.778 52.775 198.758 52.28 201.471 52.28C204.148 52.28 206.091 52.775 207.301 53.765C208.548 54.7183 209.171 56.4967 209.171 59.1V66.195H197.896V73.84C197.896 75.4167 198.134 76.5167 198.611 77.14C199.124 77.7633 200.114 78.075 201.581 78.075C202.938 78.075 203.836 77.7817 204.276 77.195C204.753 76.5717 204.991 75.4533 204.991 73.84V70.1H209.171V72.245C209.171 74.4817 208.896 76.205 208.346 77.415C207.796 78.5883 206.971 79.395 205.871 79.835C204.771 80.275 203.378 80.495 201.691 80.495ZM197.896 64.16H204.991V58.88C204.991 57.4867 204.753 56.4783 204.276 55.855C203.836 55.195 202.901 54.865 201.471 54.865C200.078 54.865 199.124 55.195 198.611 55.855C198.134 56.4783 197.896 57.4867 197.896 58.88V64.16ZM139.074 146.385C137.021 146.385 135.353 146.055 134.069 145.395C132.786 144.698 131.833 143.745 131.209 142.535C130.623 141.325 130.329 139.932 130.329 138.355V134.945H134.674V137.53C134.674 139.327 135.023 140.738 135.719 141.765C136.453 142.755 137.553 143.268 139.019 143.305C140.413 143.305 141.494 142.847 142.264 141.93C143.034 140.977 143.419 139.73 143.419 138.19V135.11C143.419 133.607 142.924 132.47 141.934 131.7C140.944 130.93 139.588 130.527 137.864 130.49H134.784V127.905H137.864C138.708 127.905 139.478 127.777 140.174 127.52C140.908 127.227 141.494 126.823 141.934 126.31C142.411 125.87 142.741 125.393 142.924 124.88C143.108 124.33 143.199 123.743 143.199 123.12V121.14C143.199 119.82 142.869 118.702 142.209 117.785C141.586 116.868 140.523 116.41 139.019 116.41C137.516 116.41 136.434 116.905 135.774 117.895C135.151 118.885 134.839 120.168 134.839 121.745V123.505H130.494V120.92C130.494 118.5 131.191 116.63 132.584 115.31C133.978 113.99 136.141 113.33 139.074 113.33C142.118 113.33 144.318 113.953 145.674 115.2C147.031 116.447 147.709 118.262 147.709 120.645V122.515C147.709 124.422 147.233 125.943 146.279 127.08C145.326 128.217 144.043 128.968 142.429 129.335C144.189 129.555 145.528 130.27 146.444 131.48C147.398 132.69 147.874 134.23 147.874 136.1V138.355C147.874 140.005 147.581 141.435 146.994 142.645C146.444 143.855 145.528 144.79 144.244 145.45C142.961 146.073 141.238 146.385 139.074 146.385ZM160.728 146.44C158.711 146.44 157.043 146.202 155.723 145.725C154.439 145.248 153.486 144.387 152.863 143.14C152.239 141.857 151.928 140.042 151.928 137.695V135.605H156.218V137.31C156.218 139.51 156.566 141.05 157.263 141.93C157.959 142.81 159.133 143.25 160.783 143.25C162.323 143.25 163.404 142.755 164.028 141.765C164.688 140.738 165.018 139.198 165.018 137.145V132.305C165.018 131.315 164.908 130.398 164.688 129.555C164.468 128.712 164.028 128.052 163.368 127.575C162.744 127.098 161.846 126.86 160.673 126.86C159.499 126.86 158.528 127.172 157.758 127.795C156.988 128.418 156.493 129.262 156.273 130.325H152.093V113.495H168.538V116.685H156.328V126.64C156.804 125.833 157.501 125.192 158.418 124.715C159.371 124.202 160.618 123.945 162.158 123.945C164.578 123.945 166.393 124.495 167.603 125.595C168.813 126.658 169.418 128.583 169.418 131.37V137.53C169.418 139.95 169.051 141.802 168.318 143.085C167.621 144.368 166.613 145.248 165.293 145.725C164.009 146.202 162.488 146.44 160.728 146.44ZM62.825 212V184.775H78.885V212H74.705V187.855H67.005V212H62.825ZM88.6252 212.385C87.7452 212.385 86.8835 212.257 86.0402 212C85.1968 211.78 84.4818 211.248 83.8952 210.405C83.3085 209.562 83.0152 208.242 83.0152 206.445V203.53C83.0152 201.733 83.5468 200.285 84.6102 199.185C85.7102 198.085 87.2685 197.095 89.2852 196.215C90.4952 195.665 91.4852 195.17 92.2552 194.73C93.0252 194.253 93.5935 193.74 93.9602 193.19C94.3268 192.603 94.5102 191.833 94.5102 190.88V189.615C94.5102 188.808 94.3452 188.203 94.0152 187.8C93.7218 187.36 93.3002 187.048 92.7502 186.865C92.2368 186.682 91.6685 186.59 91.0452 186.59C89.5785 186.59 88.6068 187.012 88.1302 187.855C87.6902 188.662 87.4702 189.908 87.4702 191.595V193.905H83.6752V191.21C83.6752 189.853 83.8585 188.662 84.2252 187.635C84.5918 186.572 85.3068 185.747 86.3702 185.16C87.4335 184.537 88.9918 184.225 91.0452 184.225C93.2085 184.225 94.8402 184.463 95.9402 184.94C97.0402 185.38 97.7735 186.04 98.1402 186.92C98.5435 187.8 98.7452 188.9 98.7452 190.22V212H94.5652V208.7C94.1618 209.91 93.3918 210.827 92.2552 211.45C91.1552 212.073 89.9452 212.385 88.6252 212.385ZM90.2752 209.58C91.7785 209.58 92.8418 209.067 93.4652 208.04C94.1252 206.977 94.4552 205.547 94.4552 203.75V195.5C94.1252 196.05 93.5752 196.545 92.8052 196.985C92.0718 197.388 91.3202 197.81 90.5502 198.25C89.4502 198.91 88.5885 199.588 87.9652 200.285C87.3785 200.982 87.0852 201.953 87.0852 203.2V205.565C87.0852 206.738 87.2502 207.618 87.5802 208.205C87.9102 208.792 88.3135 209.177 88.7902 209.36C89.3035 209.507 89.7985 209.58 90.2752 209.58ZM103.657 218.38V184.775H107.617L107.727 187.085C108.057 186.388 108.57 185.765 109.267 185.215C110 184.665 111.192 184.39 112.842 184.39C114.455 184.39 115.72 184.665 116.637 185.215C117.554 185.728 118.214 186.498 118.617 187.525C119.02 188.515 119.222 189.725 119.222 191.155V204.52C119.222 206.17 119.039 207.582 118.672 208.755C118.305 209.928 117.664 210.827 116.747 211.45C115.83 212.073 114.529 212.385 112.842 212.385C111.485 212.385 110.404 212.165 109.597 211.725C108.79 211.248 108.185 210.698 107.782 210.075V218.38H103.657ZM111.412 209.91C112.329 209.91 113.025 209.782 113.502 209.525C113.979 209.268 114.327 208.92 114.547 208.48C114.804 208.04 114.95 207.545 114.987 206.995C115.024 206.445 115.042 205.858 115.042 205.235V191.705C115.042 191.082 115.024 190.495 114.987 189.945C114.95 189.395 114.804 188.9 114.547 188.46C114.327 187.983 113.979 187.617 113.502 187.36C113.025 187.103 112.329 186.975 111.412 186.975C110.532 186.975 109.835 187.14 109.322 187.47C108.845 187.8 108.497 188.222 108.277 188.735C108.057 189.212 107.929 189.762 107.892 190.385C107.855 190.972 107.837 191.522 107.837 192.035V205.51C107.837 206.353 107.91 207.105 108.057 207.765C108.204 208.425 108.534 208.957 109.047 209.36C109.56 209.727 110.349 209.91 111.412 209.91ZM127.645 212V187.855H122.035V184.775H137.6V187.855H131.935V212H127.645ZM140.545 212V184.775H144.725V196.16H152.37V184.775H156.495V212H152.37V199.35H144.725V212H140.545ZM168.712 212.495C166.842 212.495 165.321 212.293 164.147 211.89C162.974 211.45 162.112 210.643 161.562 209.47C161.012 208.297 160.737 206.573 160.737 204.3V191.1C160.737 188.497 161.342 186.718 162.552 185.765C163.799 184.775 165.779 184.28 168.492 184.28C171.169 184.28 173.112 184.775 174.322 185.765C175.569 186.718 176.192 188.497 176.192 191.1V198.195H164.917V205.84C164.917 207.417 165.156 208.517 165.632 209.14C166.146 209.763 167.136 210.075 168.602 210.075C169.959 210.075 170.857 209.782 171.297 209.195C171.774 208.572 172.012 207.453 172.012 205.84V202.1H176.192V204.245C176.192 206.482 175.917 208.205 175.367 209.415C174.817 210.588 173.992 211.395 172.892 211.835C171.792 212.275 170.399 212.495 168.712 212.495ZM164.917 196.16H172.012V190.88C172.012 189.487 171.774 188.478 171.297 187.855C170.857 187.195 169.922 186.865 168.492 186.865C167.099 186.865 166.146 187.195 165.632 187.855C165.156 188.478 164.917 189.487 164.917 190.88V196.16ZM180.678 218.38V184.775H184.638L184.748 187.085C185.078 186.388 185.592 185.765 186.288 185.215C187.022 184.665 188.213 184.39 189.863 184.39C191.477 184.39 192.742 184.665 193.658 185.215C194.575 185.728 195.235 186.498 195.638 187.525C196.042 188.515 196.243 189.725 196.243 191.155V204.52C196.243 206.17 196.06 207.582 195.693 208.755C195.327 209.928 194.685 210.827 193.768 211.45C192.852 212.073 191.55 212.385 189.863 212.385C188.507 212.385 187.425 212.165 186.618 211.725C185.812 211.248 185.207 210.698 184.803 210.075V218.38H180.678ZM188.433 209.91C189.35 209.91 190.047 209.782 190.523 209.525C191 209.268 191.348 208.92 191.568 208.48C191.825 208.04 191.972 207.545 192.008 206.995C192.045 206.445 192.063 205.858 192.063 205.235V191.705C192.063 191.082 192.045 190.495 192.008 189.945C191.972 189.395 191.825 188.9 191.568 188.46C191.348 187.983 191 187.617 190.523 187.36C190.047 187.103 189.35 186.975 188.433 186.975C187.553 186.975 186.857 187.14 186.343 187.47C185.867 187.8 185.518 188.222 185.298 188.735C185.078 189.212 184.95 189.762 184.913 190.385C184.877 190.972 184.858 191.522 184.858 192.035V205.51C184.858 206.353 184.932 207.105 185.078 207.765C185.225 208.425 185.555 208.957 186.068 209.36C186.582 209.727 187.37 209.91 188.433 209.91ZM208.186 212.385C206.426 212.385 204.959 212.165 203.786 211.725C202.649 211.285 201.788 210.46 201.201 209.25C200.651 208.04 200.376 206.335 200.376 204.135V191.76C200.376 189.047 200.981 187.14 202.191 186.04C203.438 184.903 205.436 184.335 208.186 184.335C210.899 184.335 212.861 184.885 214.071 185.985C215.318 187.085 215.941 189.01 215.941 191.76V204.135C215.941 206.298 215.666 207.985 215.116 209.195C214.566 210.405 213.704 211.248 212.531 211.725C211.394 212.165 209.946 212.385 208.186 212.385ZM208.186 209.8C209.469 209.8 210.386 209.47 210.936 208.81C211.486 208.15 211.761 206.958 211.761 205.235V191.485C211.761 189.835 211.486 188.662 210.936 187.965C210.423 187.268 209.506 186.92 208.186 186.92C206.903 186.92 205.968 187.268 205.381 187.965C204.831 188.625 204.556 189.798 204.556 191.485V205.235C204.556 206.958 204.831 208.15 205.381 208.81C205.968 209.47 206.903 209.8 208.186 209.8ZM220.198 212V184.775H230.318C232.298 184.775 233.856 185.233 234.993 186.15C236.13 187.03 236.698 188.405 236.698 190.275V192.255C236.698 193.978 236.221 195.317 235.268 196.27C234.315 197.223 233.031 197.737 231.418 197.81V197.755C233.068 197.755 234.443 198.232 235.543 199.185C236.643 200.102 237.193 201.605 237.193 203.695V205.235C237.193 207.068 236.881 208.48 236.258 209.47C235.671 210.46 234.828 211.138 233.728 211.505C232.628 211.835 231.326 212 229.823 212H220.198ZM224.598 209.745H228.778C229.585 209.745 230.263 209.635 230.813 209.415C231.4 209.195 231.84 208.773 232.133 208.15C232.463 207.527 232.628 206.61 232.628 205.4V203.145C232.628 202.155 232.445 201.403 232.078 200.89C231.711 200.34 231.216 199.955 230.593 199.735C230.006 199.515 229.31 199.405 228.503 199.405H224.598V209.745ZM224.598 196.545H228.503C229.823 196.545 230.813 196.233 231.473 195.61C232.133 194.987 232.463 194.015 232.463 192.695V190.33C232.463 189.34 232.151 188.588 231.528 188.075C230.905 187.525 230.116 187.25 229.163 187.25H224.598V196.545ZM34.4119 278V250.775H50.4719V278H46.2919V253.855H38.5919V278H34.4119ZM62.5221 278.385C60.7621 278.385 59.2954 278.165 58.1221 277.725C56.9854 277.285 56.1237 276.46 55.5371 275.25C54.9871 274.04 54.7121 272.335 54.7121 270.135V257.76C54.7121 255.047 55.3171 253.14 56.5271 252.04C57.7737 250.903 59.7721 250.335 62.5221 250.335C65.2354 250.335 67.1971 250.885 68.4071 251.985C69.6537 253.085 70.2771 255.01 70.2771 257.76V270.135C70.2771 272.298 70.0021 273.985 69.4521 275.195C68.9021 276.405 68.0404 277.248 66.8671 277.725C65.7304 278.165 64.2821 278.385 62.5221 278.385ZM62.5221 275.8C63.8054 275.8 64.7221 275.47 65.2721 274.81C65.8221 274.15 66.0971 272.958 66.0971 271.235V257.485C66.0971 255.835 65.8221 254.662 65.2721 253.965C64.7587 253.268 63.8421 252.92 62.5221 252.92C61.2387 252.92 60.3037 253.268 59.7171 253.965C59.1671 254.625 58.8921 255.798 58.8921 257.485V271.235C58.8921 272.958 59.1671 274.15 59.7171 274.81C60.3037 275.47 61.2387 275.8 62.5221 275.8ZM84.4168 278V250.775H100.477V278H96.2968V253.855H88.5968V278H84.4168ZM105.322 284.38V250.775H109.282L109.392 253.085C109.722 252.388 110.235 251.765 110.932 251.215C111.665 250.665 112.857 250.39 114.507 250.39C116.12 250.39 117.385 250.665 118.302 251.215C119.219 251.728 119.879 252.498 120.282 253.525C120.685 254.515 120.887 255.725 120.887 257.155V270.52C120.887 272.17 120.704 273.582 120.337 274.755C119.97 275.928 119.329 276.827 118.412 277.45C117.495 278.073 116.194 278.385 114.507 278.385C113.15 278.385 112.069 278.165 111.262 277.725C110.455 277.248 109.85 276.698 109.447 276.075V284.38H105.322ZM113.077 275.91C113.994 275.91 114.69 275.782 115.167 275.525C115.644 275.268 115.992 274.92 116.212 274.48C116.469 274.04 116.615 273.545 116.652 272.995C116.689 272.445 116.707 271.858 116.707 271.235V257.705C116.707 257.082 116.689 256.495 116.652 255.945C116.615 255.395 116.469 254.9 116.212 254.46C115.992 253.983 115.644 253.617 115.167 253.36C114.69 253.103 113.994 252.975 113.077 252.975C112.197 252.975 111.5 253.14 110.987 253.47C110.51 253.8 110.162 254.222 109.942 254.735C109.722 255.212 109.594 255.762 109.557 256.385C109.52 256.972 109.502 257.522 109.502 258.035V271.51C109.502 272.353 109.575 273.105 109.722 273.765C109.869 274.425 110.199 274.957 110.712 275.36C111.225 275.727 112.014 275.91 113.077 275.91ZM132.83 278.385C131.07 278.385 129.603 278.165 128.43 277.725C127.293 277.285 126.431 276.46 125.845 275.25C125.295 274.04 125.02 272.335 125.02 270.135V257.76C125.02 255.047 125.625 253.14 126.835 252.04C128.081 250.903 130.08 250.335 132.83 250.335C135.543 250.335 137.505 250.885 138.715 251.985C139.961 253.085 140.585 255.01 140.585 257.76V270.135C140.585 272.298 140.31 273.985 139.76 275.195C139.21 276.405 138.348 277.248 137.175 277.725C136.038 278.165 134.59 278.385 132.83 278.385ZM132.83 275.8C134.113 275.8 135.03 275.47 135.58 274.81C136.13 274.15 136.405 272.958 136.405 271.235V257.485C136.405 255.835 136.13 254.662 135.58 253.965C135.066 253.268 134.15 252.92 132.83 252.92C131.546 252.92 130.611 253.268 130.025 253.965C129.475 254.625 129.2 255.798 129.2 257.485V271.235C129.2 272.958 129.475 274.15 130.025 274.81C130.611 275.47 131.546 275.8 132.83 275.8ZM143.797 283.995V275.47H146.162C146.602 275.397 147.042 275.195 147.482 274.865C147.922 274.535 148.307 274.04 148.637 273.38C149.003 272.683 149.242 271.785 149.352 270.685L151.387 250.83H165.192V275.47H169.537V283.995H165.962V278.715H147.372V283.995H143.797ZM151.937 275.47H160.737V253.855H155.237L153.532 269.915C153.422 270.905 153.257 271.968 153.037 273.105C152.853 274.205 152.487 274.993 151.937 275.47ZM178.269 278.385C177.389 278.385 176.527 278.257 175.684 278C174.84 277.78 174.125 277.248 173.539 276.405C172.952 275.562 172.659 274.242 172.659 272.445V269.53C172.659 267.733 173.19 266.285 174.254 265.185C175.354 264.085 176.912 263.095 178.929 262.215C180.139 261.665 181.129 261.17 181.899 260.73C182.669 260.253 183.237 259.74 183.604 259.19C183.97 258.603 184.154 257.833 184.154 256.88V255.615C184.154 254.808 183.989 254.203 183.659 253.8C183.365 253.36 182.944 253.048 182.394 252.865C181.88 252.682 181.312 252.59 180.689 252.59C179.222 252.59 178.25 253.012 177.774 253.855C177.334 254.662 177.114 255.908 177.114 257.595V259.905H173.319V257.21C173.319 255.853 173.502 254.662 173.869 253.635C174.235 252.572 174.95 251.747 176.014 251.16C177.077 250.537 178.635 250.225 180.689 250.225C182.852 250.225 184.484 250.463 185.584 250.94C186.684 251.38 187.417 252.04 187.784 252.92C188.187 253.8 188.389 254.9 188.389 256.22V278H184.209V274.7C183.805 275.91 183.035 276.827 181.899 277.45C180.799 278.073 179.589 278.385 178.269 278.385ZM179.919 275.58C181.422 275.58 182.485 275.067 183.109 274.04C183.769 272.977 184.099 271.547 184.099 269.75V261.5C183.769 262.05 183.219 262.545 182.449 262.985C181.715 263.388 180.964 263.81 180.194 264.25C179.094 264.91 178.232 265.588 177.609 266.285C177.022 266.982 176.729 267.953 176.729 269.2V271.565C176.729 272.738 176.894 273.618 177.224 274.205C177.554 274.792 177.957 275.177 178.434 275.36C178.947 275.507 179.442 275.58 179.919 275.58ZM191.705 278L198.58 263.59L191.705 250.775H195.94L202.045 262.49H203.915V250.83H208.095V262.49H209.91L216.015 250.775H220.305L213.375 263.59L220.25 278H215.63L209.8 265.13H208.095V278H203.915V265.13H202.155L196.325 278H191.705ZM228.972 278.385C228.092 278.385 227.23 278.257 226.387 278C225.544 277.78 224.829 277.248 224.242 276.405C223.655 275.562 223.362 274.242 223.362 272.445V269.53C223.362 267.733 223.894 266.285 224.957 265.185C226.057 264.085 227.615 263.095 229.632 262.215C230.842 261.665 231.832 261.17 232.602 260.73C233.372 260.253 233.94 259.74 234.307 259.19C234.674 258.603 234.857 257.833 234.857 256.88V255.615C234.857 254.808 234.692 254.203 234.362 253.8C234.069 253.36 233.647 253.048 233.097 252.865C232.584 252.682 232.015 252.59 231.392 252.59C229.925 252.59 228.954 253.012 228.477 253.855C228.037 254.662 227.817 255.908 227.817 257.595V259.905H224.022V257.21C224.022 255.853 224.205 254.662 224.572 253.635C224.939 252.572 225.654 251.747 226.717 251.16C227.78 250.537 229.339 250.225 231.392 250.225C233.555 250.225 235.187 250.463 236.287 250.94C237.387 251.38 238.12 252.04 238.487 252.92C238.89 253.8 239.092 254.9 239.092 256.22V278H234.912V274.7C234.509 275.91 233.739 276.827 232.602 277.45C231.502 278.073 230.292 278.385 228.972 278.385ZM230.622 275.58C232.125 275.58 233.189 275.067 233.812 274.04C234.472 272.977 234.802 271.547 234.802 269.75V261.5C234.472 262.05 233.922 262.545 233.152 262.985C232.419 263.388 231.667 263.81 230.897 264.25C229.797 264.91 228.935 265.588 228.312 266.285C227.725 266.982 227.432 267.953 227.432 269.2V271.565C227.432 272.738 227.597 273.618 227.927 274.205C228.257 274.792 228.66 275.177 229.137 275.36C229.65 275.507 230.145 275.58 230.622 275.58ZM243.509 278V250.775H248.514L254.564 272.61L260.669 250.775H265.619V278H262.099V257.375L256.049 278H253.079L246.974 257.375V278H243.509Z" fill="white"/>
</svg>
