<svg width="300" height="350" viewBox="0 0 300 350" fill="none" xmlns="http://www.w3.org/2000/svg">
<rect width="300" height="350" fill="#005BAA"/>
<path d="M102.244 80V47.495H117.204V50.575H106.424V56.075H111.759C113.189 56.075 114.381 56.295 115.334 56.735C116.287 57.175 117.002 57.89 117.479 58.88C117.992 59.87 118.249 61.19 118.249 62.84V71.805C118.249 73.4183 118.102 74.7567 117.809 75.82C117.516 76.8833 117.076 77.7267 116.489 78.35C115.939 78.9367 115.224 79.3583 114.344 79.615C113.501 79.8717 112.474 80 111.264 80H102.244ZM110.384 77.69C111.447 77.69 112.236 77.4883 112.749 77.085C113.262 76.6817 113.611 76.1133 113.794 75.38C113.977 74.6467 114.069 73.8217 114.069 72.905V63.335C114.069 62.5283 113.977 61.7767 113.794 61.08C113.647 60.3467 113.299 59.7783 112.749 59.375C112.236 58.935 111.429 58.715 110.329 58.715H106.424V77.69H110.384ZM130.225 80.385C128.465 80.385 126.998 80.165 125.825 79.725C124.688 79.285 123.826 78.46 123.24 77.25C122.69 76.04 122.415 74.335 122.415 72.135V59.76C122.415 57.0467 123.02 55.14 124.23 54.04C125.476 52.9033 127.475 52.335 130.225 52.335C132.938 52.335 134.9 52.885 136.11 53.985C137.356 55.085 137.98 57.01 137.98 59.76V72.135C137.98 74.2983 137.705 75.985 137.155 77.195C136.605 78.405 135.743 79.2483 134.57 79.725C133.433 80.165 131.985 80.385 130.225 80.385ZM130.225 77.8C131.508 77.8 132.425 77.47 132.975 76.81C133.525 76.15 133.8 74.9583 133.8 73.235V59.485C133.8 57.835 133.525 56.6617 132.975 55.965C132.461 55.2683 131.545 54.92 130.225 54.92C128.941 54.92 128.006 55.2683 127.42 55.965C126.87 56.625 126.595 57.7983 126.595 59.485V73.235C126.595 74.9583 126.87 76.15 127.42 76.81C128.006 77.47 128.941 77.8 130.225 77.8ZM140.917 80V77.69C141.613 77.69 142.218 77.3417 142.732 76.645C143.282 75.9117 143.612 74.885 143.722 73.565L145.427 52.83H160.057V80H155.767V55.855H149.662L147.902 74.72C147.865 75.1967 147.792 75.7467 147.682 76.37C147.608 76.9567 147.425 77.525 147.132 78.075C146.838 78.625 146.398 79.0833 145.812 79.45C145.225 79.8167 144.418 80 143.392 80H140.917ZM172.284 80.495C170.414 80.495 168.893 80.2933 167.719 79.89C166.546 79.45 165.684 78.6433 165.134 77.47C164.584 76.2967 164.309 74.5733 164.309 72.3V59.1C164.309 56.4967 164.914 54.7183 166.124 53.765C167.371 52.775 169.351 52.28 172.064 52.28C174.741 52.28 176.684 52.775 177.894 53.765C179.141 54.7183 179.764 56.4967 179.764 59.1V66.195H168.489V73.84C168.489 75.4167 168.728 76.5167 169.204 77.14C169.718 77.7633 170.708 78.075 172.174 78.075C173.531 78.075 174.429 77.7817 174.869 77.195C175.346 76.5717 175.584 75.4533 175.584 73.84V70.1H179.764V72.245C179.764 74.4817 179.489 76.205 178.939 77.415C178.389 78.5883 177.564 79.395 176.464 79.835C175.364 80.275 173.971 80.495 172.284 80.495ZM168.489 64.16H175.584V58.88C175.584 57.4867 175.346 56.4783 174.869 55.855C174.429 55.195 173.494 54.865 172.064 54.865C170.671 54.865 169.718 55.195 169.204 55.855C168.728 56.4783 168.489 57.4867 168.489 58.88V64.16ZM191.62 80.495C189.75 80.495 188.229 80.2933 187.055 79.89C185.882 79.45 185.02 78.6433 184.47 77.47C183.92 76.2967 183.645 74.5733 183.645 72.3V59.1C183.645 56.4967 184.25 54.7183 185.46 53.765C186.707 52.775 188.687 52.28 191.4 52.28C194.077 52.28 196.02 52.775 197.23 53.765C198.477 54.7183 199.1 56.4967 199.1 59.1V66.195H187.825V73.84C187.825 75.4167 188.064 76.5167 188.54 77.14C189.054 77.7633 190.044 78.075 191.51 78.075C192.867 78.075 193.765 77.7817 194.205 77.195C194.682 76.5717 194.92 75.4533 194.92 73.84V70.1H199.1V72.245C199.1 74.4817 198.825 76.205 198.275 77.415C197.725 78.5883 196.9 79.395 195.8 79.835C194.7 80.275 193.307 80.495 191.62 80.495ZM187.825 64.16H194.92V58.88C194.92 57.4867 194.682 56.4783 194.205 55.855C193.765 55.195 192.83 54.865 191.4 54.865C190.007 54.865 189.054 55.195 188.54 55.855C188.064 56.4783 187.825 57.4867 187.825 58.88V64.16ZM130.846 146C130.846 144.937 130.846 143.892 130.846 142.865C130.846 141.802 130.846 140.738 130.846 139.675C130.846 137.805 131.103 136.32 131.616 135.22C132.166 134.12 132.936 133.222 133.926 132.525C134.953 131.792 136.218 131.058 137.721 130.325C139.004 129.702 140.068 129.042 140.911 128.345C141.754 127.612 142.396 126.732 142.836 125.705C143.276 124.642 143.496 123.34 143.496 121.8C143.533 120.077 143.221 118.757 142.561 117.84C141.938 116.923 140.874 116.465 139.371 116.465C137.978 116.465 136.914 116.923 136.181 117.84C135.484 118.757 135.136 120.168 135.136 122.075V124.66H130.901V121.085C130.901 118.445 131.634 116.502 133.101 115.255C134.568 113.972 136.676 113.33 139.426 113.33C141.516 113.33 143.184 113.642 144.431 114.265C145.678 114.888 146.576 115.842 147.126 117.125C147.676 118.408 147.951 120.04 147.951 122.02C147.951 124.513 147.474 126.585 146.521 128.235C145.568 129.885 144.083 131.26 142.066 132.36C141.003 132.837 140.013 133.35 139.096 133.9C138.216 134.413 137.464 135.037 136.841 135.77C136.254 136.467 135.888 137.365 135.741 138.465C135.594 139.088 135.466 139.73 135.356 140.39C135.283 141.05 135.246 141.747 135.246 142.48H148.171V146H130.846ZM160.486 146.44C158.469 146.44 156.801 146.202 155.481 145.725C154.198 145.248 153.244 144.387 152.621 143.14C151.998 141.857 151.686 140.042 151.686 137.695V135.605H155.976V137.31C155.976 139.51 156.324 141.05 157.021 141.93C157.718 142.81 158.891 143.25 160.541 143.25C162.081 143.25 163.163 142.755 163.786 141.765C164.446 140.738 164.776 139.198 164.776 137.145V132.305C164.776 131.315 164.666 130.398 164.446 129.555C164.226 128.712 163.786 128.052 163.126 127.575C162.503 127.098 161.604 126.86 160.431 126.86C159.258 126.86 158.286 127.172 157.516 127.795C156.746 128.418 156.251 129.262 156.031 130.325H151.851V113.495H168.296V116.685H156.086V126.64C156.563 125.833 157.259 125.192 158.176 124.715C159.129 124.202 160.376 123.945 161.916 123.945C164.336 123.945 166.151 124.495 167.361 125.595C168.571 126.658 169.176 128.583 169.176 131.37V137.53C169.176 139.95 168.809 141.802 168.076 143.085C167.379 144.368 166.371 145.248 165.051 145.725C163.768 146.202 162.246 146.44 160.486 146.44ZM121.581 212V209.69C122.277 209.69 122.882 209.342 123.396 208.645C123.946 207.912 124.276 206.885 124.386 205.565L126.091 184.83H140.721V212H136.431V187.855H130.326L128.566 206.72C128.529 207.197 128.456 207.747 128.346 208.37C128.272 208.957 128.089 209.525 127.796 210.075C127.502 210.625 127.062 211.083 126.476 211.45C125.889 211.817 125.082 212 124.056 212H121.581ZM152.948 212.495C151.078 212.495 149.557 212.293 148.383 211.89C147.21 211.45 146.348 210.643 145.798 209.47C145.248 208.297 144.973 206.573 144.973 204.3V191.1C144.973 188.497 145.578 186.718 146.788 185.765C148.035 184.775 150.015 184.28 152.728 184.28C155.405 184.28 157.348 184.775 158.558 185.765C159.805 186.718 160.428 188.497 160.428 191.1V198.195H149.153V205.84C149.153 207.417 149.392 208.517 149.868 209.14C150.382 209.763 151.372 210.075 152.838 210.075C154.195 210.075 155.093 209.782 155.533 209.195C156.01 208.572 156.248 207.453 156.248 205.84V202.1H160.428V204.245C160.428 206.482 160.153 208.205 159.603 209.415C159.053 210.588 158.228 211.395 157.128 211.835C156.028 212.275 154.635 212.495 152.948 212.495ZM149.153 196.16H156.248V190.88C156.248 189.487 156.01 188.478 155.533 187.855C155.093 187.195 154.158 186.865 152.728 186.865C151.335 186.865 150.382 187.195 149.868 187.855C149.392 188.478 149.153 189.487 149.153 190.88V196.16ZM168.599 212V187.855H162.989V184.775H178.554V187.855H172.889V212H168.599ZM106.458 278.385C104.698 278.385 103.231 278.165 102.058 277.725C100.921 277.285 100.059 276.46 99.4726 275.25C98.9226 274.04 98.6476 272.335 98.6476 270.135V257.76C98.6476 255.047 99.2526 253.14 100.463 252.04C101.709 250.903 103.708 250.335 106.458 250.335C109.171 250.335 111.133 250.885 112.343 251.985C113.589 253.085 114.213 255.01 114.213 257.76V270.135C114.213 272.298 113.938 273.985 113.388 275.195C112.838 276.405 111.976 277.248 110.803 277.725C109.666 278.165 108.218 278.385 106.458 278.385ZM106.458 275.8C107.741 275.8 108.658 275.47 109.208 274.81C109.758 274.15 110.033 272.958 110.033 271.235V257.485C110.033 255.835 109.758 254.662 109.208 253.965C108.694 253.268 107.778 252.92 106.458 252.92C105.174 252.92 104.239 253.268 103.653 253.965C103.103 254.625 102.828 255.798 102.828 257.485V271.235C102.828 272.958 103.103 274.15 103.653 274.81C104.239 275.47 105.174 275.8 106.458 275.8ZM118.47 278V250.775H134.53V278H130.35V253.855H122.65V278H118.47ZM138.77 278V250.885H142.95V259.355H148.23C149.806 259.355 151.071 259.593 152.025 260.07C152.978 260.547 153.675 261.28 154.115 262.27C154.555 263.26 154.775 264.543 154.775 266.12V269.035C154.775 270.648 154.646 272.023 154.39 273.16C154.133 274.297 153.73 275.232 153.18 275.965C152.666 276.662 151.97 277.175 151.09 277.505C150.21 277.835 149.11 278 147.79 278H138.77ZM142.95 275.69H146.855C147.955 275.69 148.761 275.488 149.275 275.085C149.788 274.682 150.136 274.113 150.32 273.38C150.503 272.647 150.595 271.822 150.595 270.905V266.835C150.595 265.955 150.521 265.148 150.375 264.415C150.228 263.682 149.898 263.095 149.385 262.655C148.871 262.215 148.028 261.995 146.855 261.995H142.95V275.69ZM159.615 278V250.775H163.74V278H159.615ZM172.816 278V253.855H167.206V250.775H182.771V253.855H177.106V278H172.816ZM191.106 278.385C190.226 278.385 189.364 278.257 188.521 278C187.677 277.78 186.962 277.248 186.376 276.405C185.789 275.562 185.496 274.242 185.496 272.445V269.53C185.496 267.733 186.027 266.285 187.091 265.185C188.191 264.085 189.749 263.095 191.766 262.215C192.976 261.665 193.966 261.17 194.736 260.73C195.506 260.253 196.074 259.74 196.441 259.19C196.807 258.603 196.991 257.833 196.991 256.88V255.615C196.991 254.808 196.826 254.203 196.496 253.8C196.202 253.36 195.781 253.048 195.231 252.865C194.717 252.682 194.149 252.59 193.526 252.59C192.059 252.59 191.087 253.012 190.611 253.855C190.171 254.662 189.951 255.908 189.951 257.595V259.905H186.156V257.21C186.156 255.853 186.339 254.662 186.706 253.635C187.072 252.572 187.787 251.747 188.851 251.16C189.914 250.537 191.472 250.225 193.526 250.225C195.689 250.225 197.321 250.463 198.421 250.94C199.521 251.38 200.254 252.04 200.621 252.92C201.024 253.8 201.226 254.9 201.226 256.22V278H197.046V274.7C196.642 275.91 195.872 276.827 194.736 277.45C193.636 278.073 192.426 278.385 191.106 278.385ZM192.756 275.58C194.259 275.58 195.322 275.067 195.946 274.04C196.606 272.977 196.936 271.547 196.936 269.75V261.5C196.606 262.05 196.056 262.545 195.286 262.985C194.552 263.388 193.801 263.81 193.031 264.25C191.931 264.91 191.069 265.588 190.446 266.285C189.859 266.982 189.566 267.953 189.566 269.2V271.565C189.566 272.738 189.731 273.618 190.061 274.205C190.391 274.792 190.794 275.177 191.271 275.36C191.784 275.507 192.279 275.58 192.756 275.58Z" fill="white"/>
</svg>
