<?xml version="1.0" encoding="UTF-8"?>
<!DOCTYPE svg PUBLIC "-//W3C//DTD SVG 1.1//EN" "http://www.w3.org/Graphics/SVG/1.1/DTD/svg11.dtd">
<!-- Creator: CorelDRAW -->
<svg xmlns="http://www.w3.org/2000/svg" xml:space="preserve" width="174mm" height="57mm" version="1.1" style="shape-rendering:geometricPrecision; text-rendering:geometricPrecision; image-rendering:optimizeQuality; fill-rule:evenodd; clip-rule:evenodd"
viewBox="0 0 17400 5700"
 xmlns:xlink="http://www.w3.org/1999/xlink"
 xmlns:xodm="http://www.corel.com/coreldraw/odm/2003">
 <defs>
  <style type="text/css">
   <![CDATA[
    .str0 {stroke:#005BAA;stroke-width:20;stroke-miterlimit:22.9256}
    .str1 {stroke:white;stroke-width:17.64;stroke-miterlimit:22.9256}
    .fil0 {fill:#005BAA}
    .fil2 {fill:white}
    .fil1 {fill:white;fill-rule:nonzero}
   ]]>
  </style>
 </defs>
 <g id="Слой_x0020_1">
  <metadata id="CorelCorpID_0Corel-Layer"/>
  <rect class="fil0 str0" x="-3.73" y="3.27" width="17400" height="5700"/>
  <path class="fil1" d="M16305.13 3551.25l0 1056.18 -375.1 0 0 -952.54 -473.78 -498.48 -1223.99 0 0 1451.02 -375.1 0 0 -3454.81 1974.19 0 454.04 454.07 0 1090.73 -399.77 399.77 419.51 454.06zm-2072.87 -720.59l1436.2 0 246.78 -241.83 0 -868.65 -246.78 -241.83 -1436.2 0 0 1352.31z"/>
  <polygon class="fil1" points="7014.58,1152.62 9245.38,1152.62 9245.38,1488.24 7389.67,1488.24 7389.67,2702.35 9102.26,2702.35 9102.26,3037.96 7389.67,3037.96 7389.67,4271.81 9245.38,4271.81 9245.38,4607.43 7014.58,4607.43 "/>
  <path class="fil1" d="M6249.58 3551.25l0 1056.18 -375.1 0 0 -952.54 -473.78 -498.48 -1224 0 0 1451.02 -375.09 0 0 -3454.81 1974.18 0 454.04 454.07 0 1090.73 -399.76 399.77 419.51 454.06zm-2072.88 -720.59l1436.21 0 246.78 -241.83 0 -868.65 -246.78 -241.83 -1436.21 0 0 1352.31z"/>
  <polygon class="fil1" points="1077.26,1152.62 3258.72,1152.62 3258.72,1488.24 1452.35,1488.24 1452.35,2731.95 3021.82,2731.95 3021.82,3067.56 1452.35,3067.56 1452.35,4607.43 1077.26,4607.43 "/>
  <path class="fil2 str1" d="M11343.51 1695.38c0.53,-206.15 -32.9,-283 168.93,-166.6 182.08,105.03 136.62,73.66 136.62,309.06 0,174.38 -38.38,290.36 114.54,299.26l-1.43 -596.23 -529.06 -290.76 -1.31 1381.7c-62.02,-9.22 -309.28,-166.01 -393.26,-214.23 -148.31,-85.17 -276,-218.56 -407.74,-104.55l979.53 575.27c-78.94,96.12 -185.87,-3.95 -286.46,-63.09 -102.35,-60.2 -191.47,-113.71 -291.85,-171.31 -103.67,-59.49 -527.71,-271.55 -556.48,-353.17 32.26,-58.81 105.27,-88.35 177.71,-127.87 213.33,-116.42 329.99,269 588.39,145.58 -27.36,-64.94 -421.79,-281.75 -516.63,-316.36l-513.85 309.87 1184.14 700.97c-50.63,51.92 -310.96,193.1 -370.73,226.11 -330.31,182.31 -304.33,141.86 -300.39,302l1003.53 -566.89c6.95,145.7 -106.46,160.66 -235.63,235.3 -90.65,52.41 -195.52,115.18 -281.35,164.35 -109.84,62.9 -495.74,324.74 -586.27,280.21l-0.74 -288.35c56.15,-49.19 168.35,-102 252.54,-150.03 119.87,-68.39 170.68,-46.31 157.35,-220.71l-522.65 302.88 4.42 606.55 1212.99 -686.94 1.22 596.89c-1.3,139.96 -37.19,228.02 113.03,248.83l0.27 -1141.45c119.15,33.99 98.6,58.03 96.67,197.43l-12.36 1078.44c-94.15,18.4 -236.21,-96.57 -290.92,-131.82 -10.1,-404.88 59.25,-493.81 -116.74,-527.8l2.31 80.35c8.19,578.66 -65.74,477.21 204.88,635.97 65.39,38.33 278.03,166.84 325.14,174.34l3.07 -1382.77c76.03,16.78 317.96,172.09 396.06,215.85 170.81,95.7 227.03,189.19 395.54,129.63 -25.5,-82.18 -155.79,-121.52 -244.87,-172.15 -88.78,-50.47 -167.93,-98.02 -248.12,-143.64 -107.7,-61.26 -429.74,-229.05 -483.02,-294.02 114.57,-76.85 210.6,26.08 305.4,80.61 151.7,87.26 795.99,442.43 833,506.93 -33.08,77.8 -165.6,143.7 -255.75,167.84 -172.62,-48.5 -365.72,-299.45 -513.26,-156.73l516.04 297.46 514.25 -315.73 -1185.58 -676.1c44.11,-85.14 431.65,-283.5 569.33,-359.84 109.05,-60.46 112.77,-46.79 105.98,-191.38l-1008.09 569.7c1.54,-121.31 -3.26,-104.92 94.66,-154.36l428.1 -245.49c565.28,-331.84 630.06,-438.38 582.08,12.38 -73.13,38.23 -152.1,90.13 -235.09,137.05 -132.88,75.15 -174.4,53.38 -177.55,213.49 94.13,-13.94 251.16,-121.57 340.54,-175.56 183.67,-111.04 191.31,-48.59 191.55,-280.03l-8.04 -438.78 -1215.77 693.28 -0.05 -485.96c-0.39,-223.14 51.9,-336.25 -111.28,-371.37 -0.45,301.66 10.21,850.87 -7.26,1141.63 -130.16,-7.85 -90.34,-204.51 -90.34,-307.33l0.11 -747.81zm151.84 1186.01c29.78,21.57 53.53,12.81 84.69,5 24.12,-17.3 21.62,-62.32 11.69,-90.97 -72.19,-28.47 -121.86,-10.81 -96.38,85.97z"/>
  <path class="fil2 str1" d="M12508.44 3877.99c-3.51,-161.56 4.72,-110.85 -232.03,-249.67 -98.87,-57.97 -200.37,-136.12 -299.16,-159.92l1.94 123.05c156.18,67.38 379.11,246.39 529.25,286.54z"/>
  <path class="fil2 str1" d="M12601.45 3874.68c109.93,-22.42 411.26,-230.64 528.46,-282.57l2.25 -123.05c-94.85,25.24 -225.24,112.93 -312.39,166.02 -231.31,140.92 -219.22,78.09 -218.32,239.6z"/>
  <path class="fil2 str1" d="M11108.01 2208.63l-2.96 -113.54c-59.25,-43.33 -452.6,-278.69 -526.71,-296.48 -1.99,120.64 -13.39,114.35 74.72,162.86 90.74,49.94 391.81,238.78 454.95,247.16z"/>
  <path class="fil2 str1" d="M11786.66 4526.32c-45.78,-51.32 -242.36,-151.04 -306,-187.99 -134.87,-78.25 -167.03,-153.61 -307.15,-61.26 38.44,53.62 235.74,150.78 303.99,190.11 132.07,76.13 190.73,160.45 309.16,59.14z"/>
  <path class="fil2 str1" d="M9957.64 2084.1l-3.45 125.85c83.08,-24.54 321.96,-180.06 438.04,-240.21 94.16,-48.77 85.8,-38.09 91.03,-160.98 -144.63,18.61 -393.16,220.28 -525.62,275.34z"/>
  <path class="fil2 str1" d="M11305.89 1161.26c32.67,25.92 452.39,289.4 516.71,283.64 31.29,-2.79 86.29,-33.4 108.33,-46.17 -163.8,-148.29 -557.09,-297.12 -558.78,-296.69 -43.8,11.17 -53.28,33.33 -66.26,59.22z"/>
  <path class="fil2 str1" d="M10162.22 3128.07c85.41,146.74 194.7,28.81 316,-38.94 59.4,-33.16 264.78,-147.7 295.32,-183.04 -151.2,-148.99 -324.29,124.35 -611.32,221.98z"/>
  <path class="fil2 str1" d="M12309.95 2763.67c93.84,138.63 264.07,-33.08 471.65,-146.51 167.69,-91.58 113.42,-49.78 126.97,-102.77 -89.78,-57.33 -71.65,-62.77 -165.57,-6.49l-433.05 255.77z"/>
  <path class="fil2 str1" d="M11115.28 4186.41c130.73,-22.61 111.06,-62.42 110.77,-194.22l-0.45 -455.64c-53.7,14.29 -77.19,32.08 -109.79,50.1l-0.53 599.76z"/>
  <path class="fil2 str1" d="M11863.64 1536.32l-4.29 605.59 110.08 -48.99 1.11 -600.93c-49.78,10.84 -72.23,25.87 -106.9,44.33z"/>
  <path class="fil2 str1" d="M10105.55 3845.42c47.82,27.09 43.61,32.84 107.46,47.18l-1.96 -603.47 -109.74 -42.23 4.24 598.52z"/>
  <polygon class="fil2 str1" points="12872.7,2387.98 12980.59,2436.38 12982.29,1837.82 12875.88,1777.72 "/>
 </g>
</svg>
